<?xml version="1.0" standalone="no"?><svg xmlns:xlink="http://www.w3.org/1999/xlink" xmlns="http://www.w3.org/2000/svg" viewBox="0 0 1000 500" preserveAspectRatio="xMaxYMax slice"><g transform="scale(0.8347245409015025)"><rect x="0" y="0" width="1198" height="599" fill="#000000"/><rect x="0" y="0" width="99.83333333333333" height="99.83333333333333" fill="#000000"/><rect x="0" y="0" width="49.92" height="49.92" fill="#5661f7"/><path d="M 0 49.92 A 49.92 49.92 0 0 0 49.92 0 L 0 0" fill="#353c98"/><rect x="49.92" y="0" width="49.92" height="49.92" fill="#414abd"/><path d="M 49.92 0 A 49.92 49.92 0 0 0 99.84 49.92 L 99.84 0" fill="#242969"/><rect x="0" y="49.92" width="49.92" height="49.92" fill="#2e3484"/><path d="M 0 49.92 A 49.92 49.92 0 0 1 49.92 99.84 L 0 99.84" fill="#04050c"/><rect x="49.92" y="49.92" width="49.92" height="49.92" fill="#4952d3"/><path d="M 49.92 99.84 A 49.92 49.92 0 0 1  99.84 49.92 L 99.84 99.84" fill="#343b97"/><rect x="99.83" y="0" width="99.83" height="99.83" fill="#060610"/><polygon points="99.83,0 199.66,99.83 99.83,99.83" fill="#4f5ae5"/><rect x="199.67" y="0" width="99.83" height="99.83" fill="#252a6c"/><rect x="199.67" y="0" width="99.83" height="99.83" fill="#252a6a"/><rect x="299.5" y="0" width="99.83333333333333" height="99.83333333333333" fill="#000000"/><rect x="299.5" y="0" width="49.92" height="49.92" fill="#3c43ac"/><polygon points="299.5,0 349.42,0 299.5,49.92" fill="#15183c"/><rect x="349.42" y="0" width="49.92" height="49.92" fill="#363c9b"/><polygon points="349.42,0 399.34000000000003,0 399.34000000000003,49.92" fill="#383fa0"/><rect x="299.5" y="49.92" width="49.92" height="49.92" fill="#454ec7"/><polygon points="349.42,49.92 349.42,99.84 299.5,99.84" fill="#05060f"/><rect x="349.42" y="49.92" width="49.92" height="49.92" fill="#3b42a9"/><polygon points="349.42,49.92 399.34000000000003,99.84 349.42,99.84" fill="#0e1028"/><rect x="399.33" y="0" width="99.83" height="99.83" fill="#04050c"/><rect x="399.33" y="0" width="99.83" height="99.83" fill="#282d73"/><rect x="499.16666666666663" y="0" width="99.83333333333333" height="99.83333333333333" fill="#000000"/><rect x="499.17" y="0" width="49.92" height="49.92" fill="#4a53d5"/><circle cx="524.13" cy="24.96" r="24.96" fill="#121434"/><rect x="549.08" y="0" width="49.92" height="49.92" fill="#060712"/><rect x="549.08" y="0" width="49.92" height="49.92" fill="#4952d2"/><rect x="499.17" y="49.92" width="49.92" height="49.92" fill="#3b43ab"/><circle cx="524.13" cy="74.88" r="24.96" fill="#535ef0"/><rect x="549.08" y="49.92" width="49.92" height="49.92" fill="#292f78"/><rect x="549.08" y="49.92" width="49.92" height="49.92" fill="#1a1d4a"/><rect x="599" y="0" width="99.83" height="99.83" fill="#31378d"/><path d="M 599 99.83 A 99.83 99.83 0 0 1  698.83 0 L 698.83 99.83" fill="#070814"/><rect x="698.83" y="0" width="99.83" height="99.83" fill="#111332"/><rect x="698.83" y="0" width="99.83" height="99.83" fill="#131638"/><rect x="798.67" y="0" width="99.83" height="99.83" fill="#05050d"/><polygon points="798.67,0 898.5,99.83 798.67,99.83" fill="#0f112c"/><rect x="898.5" y="0" width="99.83" height="99.83" fill="#5661f8"/><polygon points="998.33,0 998.33,99.83 898.5,99.83" fill="#424bc0"/><rect x="998.33" y="0" width="99.83" height="99.83" fill="#0c0d22"/><rect x="998.33" y="0" width="99.83" height="99.83" fill="#2f3587"/><rect x="1098.17" y="0" width="99.83" height="99.83" fill="#181b46"/><polygon points="1198,0 1198,99.83 1098.17,99.83" fill="#2c317e"/><rect x="0" y="99.83" width="99.83" height="99.83" fill="#4b55d9"/><polygon points="0,99.83 99.83,199.66 0,199.66" fill="#373e9e"/><rect x="99.83" y="99.83" width="99.83" height="99.83" fill="#3940a5"/><path d="M 99.83 99.83 A 99.83 99.83 0 0 1  199.66 199.66 L 99.83 99.83 A 99.83 99.83 0 0 0 199.66 199.66" fill="#4952d2"/><rect x="199.67" y="99.83" width="99.83" height="99.83" fill="#232866"/><rect x="199.67" y="99.83" width="99.83" height="99.83" fill="#3e46b3"/><rect x="299.5" y="99.83" width="99.83" height="99.83" fill="#5560f5"/><path d="M 299.5 199.66 A 99.83 99.83 0 0 0 399.33 99.83 L 299.5 99.83" fill="#181b46"/><rect x="399.33" y="99.83" width="99.83" height="99.83" fill="#1f235a"/><rect x="399.33" y="99.83" width="99.83" height="99.83" fill="#0c0d22"/><rect x="499.16666666666663" y="99.83333333333333" width="99.83333333333333" height="99.83333333333333" fill="#000000"/><rect x="499.17" y="99.83" width="49.92" height="49.92" fill="#4750cc"/><path d="M 499.17 149.75 A 49.92 49.92 0 0 1  549.09 99.83 L 549.09 149.75" fill="#242969"/><rect x="549.08" y="99.83" width="49.92" height="49.92" fill="#0f112c"/><path d="M 549.08 99.83 A 49.92 49.92 0 0 1 599 149.75 L 549.08 149.75" fill="#292e76"/><rect x="499.17" y="149.75" width="49.92" height="49.92" fill="#121535"/><path d="M 499.17 149.75 A 49.92 49.92 0 0 0 549.09 199.67000000000002 L 549.09 149.75" fill="#15173c"/><rect x="549.08" y="149.75" width="49.92" height="49.92" fill="#5661f8"/><path d="M 549.08 199.67000000000002 A 49.92 49.92 0 0 0 599 149.75 L 549.08 149.75" fill="#16193f"/><rect x="599" y="99.83" width="99.83" height="99.83" fill="#1f2359"/><polygon points="599,99.83 698.83,199.66 599,199.66" fill="#0f112b"/><rect x="698.8333333333333" y="99.83333333333333" width="99.83333333333333" height="99.83333333333333" fill="#000000"/><rect x="698.83" y="99.83" width="49.92" height="49.92" fill="#4a54d6"/><circle cx="723.7900000000001" cy="124.78999999999999" r="24.96" fill="#2e3486"/><rect x="748.75" y="99.83" width="49.92" height="49.92" fill="#353c98"/><rect x="748.75" y="99.83" width="49.92" height="49.92" fill="#020205"/><rect x="698.83" y="149.75" width="49.92" height="49.92" fill="#343a95"/><circle cx="723.7900000000001" cy="174.71" r="24.96" fill="#2e3485"/><rect x="748.75" y="149.75" width="49.92" height="49.92" fill="#3941a5"/><rect x="748.75" y="149.75" width="49.92" height="49.92" fill="#0f102a"/><rect x="798.67" y="99.83" width="99.83" height="99.83" fill="#1a1d4a"/><path d="M 798.67 99.83 A 99.83 99.83 0 0 1 898.5 199.66 L 798.67 199.66" fill="#4c56db"/><rect x="898.5" y="99.83333333333333" width="99.83333333333333" height="99.83333333333333" fill="#000000"/><rect x="898.5" y="99.83" width="49.92" height="49.92" fill="#3f47b6"/><polygon points="898.5,99.83 948.42,99.83 898.5,149.75" fill="#131638"/><rect x="948.42" y="99.83" width="49.92" height="49.92" fill="#282d73"/><polygon points="948.42,99.83 998.3399999999999,99.83 998.3399999999999,149.75" fill="#0a0c1e"/><rect x="898.5" y="149.75" width="49.92" height="49.92" fill="#3b43ab"/><polygon points="948.42,149.75 948.42,199.67000000000002 898.5,199.67000000000002" fill="#1e2256"/><rect x="948.42" y="149.75" width="49.92" height="49.92" fill="#1d2154"/><polygon points="948.42,149.75 998.3399999999999,199.67000000000002 948.42,199.67000000000002" fill="#4952d1"/><rect x="998.33" y="99.83" width="99.83" height="99.83" fill="#525cec"/><rect x="998.33" y="99.83" width="99.83" height="99.83" fill="#121535"/><rect x="1098.17" y="99.83" width="99.83" height="99.83" fill="#15183e"/><rect x="1098.17" y="99.83" width="99.83" height="99.83" fill="#343a95"/><rect x="0" y="199.66666666666666" width="99.83333333333333" height="99.83333333333333" fill="#000000"/><rect x="0" y="199.67" width="49.92" height="49.92" fill="#2a307a"/><polygon points="0,199.67 49.92,199.67 0,249.58999999999997" fill="#5661f8"/><rect x="49.92" y="199.67" width="49.92" height="49.92" fill="#424abe"/><polygon points="49.92,199.67 99.84,199.67 99.84,249.58999999999997" fill="#131638"/><rect x="0" y="249.58" width="49.92" height="49.92" fill="#2f3587"/><polygon points="0,249.58 49.92,299.5 0,299.5" fill="#323890"/><rect x="49.92" y="249.58" width="49.92" height="49.92" fill="#454dc6"/><polygon points="99.84,249.58 99.84,299.5 49.92,299.5" fill="#121535"/><rect x="99.83" y="199.67" width="99.83" height="99.83" fill="#4c56dc"/><path d="M 99.83 199.67 A 99.83 99.83 0 0 1 199.66 299.5 L 99.83 299.5" fill="#1f2359"/><rect x="199.67" y="199.67" width="99.83" height="99.83" fill="#32388f"/><path d="M 199.67 299.5 A 99.83 99.83 0 0 0 299.5 199.67 L 199.67 199.67" fill="#3a42a8"/><rect x="299.5" y="199.67" width="99.83" height="99.83" fill="#424bc0"/><rect x="299.5" y="199.67" width="99.83" height="99.83" fill="#1e2256"/><rect x="399.3333333333333" y="199.66666666666666" width="99.83333333333333" height="99.83333333333333" fill="#000000"/><rect x="399.33" y="199.67" width="49.92" height="49.92" fill="#4a54d6"/><polygon points="399.33,199.67 449.25,199.67 399.33,249.58999999999997" fill="#2f3587"/><rect x="449.25" y="199.67" width="49.92" height="49.92" fill="#0e0f27"/><polygon points="499.17,199.67 499.17,249.58999999999997 449.25,249.58999999999997" fill="#505be8"/><rect x="399.33" y="249.58" width="49.92" height="49.92" fill="#535ef0"/><polygon points="399.33,249.58 449.25,249.58 449.25,299.5" fill="#4751ce"/><rect x="449.25" y="249.58" width="49.92" height="49.92" fill="#030307"/><polygon points="449.25,249.58 499.17,299.5 449.25,299.5" fill="#2f3587"/><rect x="499.17" y="199.67" width="99.83" height="99.83" fill="#191c47"/><rect x="499.17" y="199.67" width="99.83" height="99.83" fill="#3e46b4"/><rect x="599" y="199.67" width="99.83" height="99.83" fill="#2e3485"/><polygon points="698.83,199.67 698.83,299.5 599,299.5" fill="#3940a4"/><rect x="698.83" y="199.67" width="99.83" height="99.83" fill="#292f77"/><rect x="698.83" y="199.67" width="99.83" height="99.83" fill="#454ec8"/><rect x="798.6666666666666" y="199.66666666666666" width="99.83333333333333" height="99.83333333333333" fill="#000000"/><rect x="798.67" y="199.67" width="49.92" height="49.92" fill="#181b44"/><path d="M 798.67 199.67 A 49.92 49.92 0 0 1 848.5899999999999 249.58999999999997 L 798.67 249.58999999999997" fill="#2d3382"/><rect x="848.58" y="199.67" width="49.92" height="49.92" fill="#05060f"/><path d="M 848.58 249.58999999999997 A 49.92 49.92 0 0 1  898.5 199.67 L 898.5 249.58999999999997" fill="#1b1e4e"/><rect x="798.67" y="249.58" width="49.92" height="49.92" fill="#535eef"/><path d="M 798.67 299.5 A 49.92 49.92 0 0 0 848.5899999999999 249.58 L 798.67 249.58" fill="#353c99"/><rect x="848.58" y="249.58" width="49.92" height="49.92" fill="#15183d"/><path d="M 848.58 249.58 A 49.92 49.92 0 0 0 898.5 299.5 L 898.5 249.58" fill="#030309"/><rect x="898.5" y="199.67" width="99.83" height="99.83" fill="#434cc1"/><path d="M 898.5 299.5 A 99.83 99.83 0 0 1  998.33 199.67 L 998.33 299.5" fill="#3c44ad"/><rect x="998.33" y="199.67" width="99.83" height="99.83" fill="#242968"/><path d="M 998.33 199.67 A 99.83 99.83 0 0 0 1098.16 299.5 L 1098.16 199.67" fill="#1e2256"/><rect x="1098.17" y="199.67" width="99.83" height="99.83" fill="#2e3484"/><path d="M 1098.17 199.67 A 99.83 99.83 0 0 1  1198 299.5 L 1098.17 199.67 A 99.83 99.83 0 0 0 1198 299.5" fill="#4e58e0"/><rect x="0" y="299.5" width="99.83333333333333" height="99.83333333333333" fill="#000000"/><rect x="0" y="299.5" width="49.92" height="49.92" fill="#242968"/><path d="M 0 299.5 A 49.92 49.92 0 0 1 49.92 349.42 L 0 349.42" fill="#444cc3"/><rect x="49.92" y="299.5" width="49.92" height="49.92" fill="#060711"/><path d="M 49.92 349.42 A 49.92 49.92 0 0 1  99.84 299.5 L 99.84 349.42" fill="#4149bb"/><rect x="0" y="349.42" width="49.92" height="49.92" fill="#4a54d6"/><path d="M 0 399.34000000000003 A 49.92 49.92 0 0 0 49.92 349.42 L 0 349.42" fill="#010102"/><rect x="49.92" y="349.42" width="49.92" height="49.92" fill="#353c99"/><path d="M 49.92 349.42 A 49.92 49.92 0 0 0 99.84 399.34000000000003 L 99.84 349.42" fill="#424bbf"/><rect x="99.83" y="299.5" width="99.83" height="99.83" fill="#505ae6"/><path d="M 99.83 299.5 A 99.83 99.83 0 0 0 199.66 399.33 L 199.66 299.5" fill="#1e2256"/><rect x="199.67" y="299.5" width="99.83" height="99.83" fill="#1c1f50"/><path d="M 199.67 399.33 A 99.83 99.83 0 0 0 299.5 299.5 L 199.67 299.5" fill="#010204"/><rect x="299.5" y="299.5" width="99.83333333333333" height="99.83333333333333" fill="#000000"/><rect x="299.5" y="299.5" width="49.92" height="49.92" fill="#111330"/><polygon points="299.5,299.5 349.42,299.5 299.5,349.42" fill="#1d2155"/><rect x="349.42" y="299.5" width="49.92" height="49.92" fill="#4b54d8"/><polygon points="399.34000000000003,299.5 399.34000000000003,349.42 349.42,349.42" fill="#30368b"/><rect x="299.5" y="349.42" width="49.92" height="49.92" fill="#232764"/><polygon points="299.5,349.42 349.42,349.42 349.42,399.34000000000003" fill="#262b6e"/><rect x="349.42" y="349.42" width="49.92" height="49.92" fill="#0a0c1e"/><polygon points="349.42,349.42 399.34000000000003,399.34000000000003 349.42,399.34000000000003" fill="#282d73"/><rect x="399.33" y="299.5" width="99.83" height="99.83" fill="#4048b7"/><polygon points="399.33,299.5 499.15999999999997,299.5 399.33,399.33" fill="#121535"/><rect x="499.16666666666663" y="299.5" width="99.83333333333333" height="99.83333333333333" fill="#000000"/><rect x="499.17" y="299.5" width="49.92" height="49.92" fill="#353b98"/><path d="M 499.17 349.42 A 49.92 49.92 0 0 0 549.09 299.5 L 499.17 299.5" fill="#434cc3"/><rect x="549.08" y="299.5" width="49.92" height="49.92" fill="#272c70"/><path d="M 549.08 299.5 A 49.92 49.92 0 0 0 599 349.42 L 599 299.5" fill="#191c47"/><rect x="499.17" y="349.42" width="49.92" height="49.92" fill="#272c71"/><path d="M 499.17 349.42 A 49.92 49.92 0 0 1 549.09 399.34000000000003 L 499.17 399.34000000000003" fill="#171a44"/><rect x="549.08" y="349.42" width="49.92" height="49.92" fill="#4a54d6"/><path d="M 549.08 399.34000000000003 A 49.92 49.92 0 0 1  599 349.42 L 599 399.34000000000003" fill="#090a1a"/><rect x="599" y="299.5" width="99.83" height="99.83" fill="#1f235b"/><rect x="599" y="299.5" width="99.83" height="99.83" fill="#1b1e4e"/><rect x="698.8333333333333" y="299.5" width="99.83333333333333" height="99.83333333333333" fill="#000000"/><rect x="698.83" y="299.5" width="49.92" height="49.92" fill="#373e9d"/><polygon points="698.83,299.5 748.75,299.5 698.83,349.42" fill="#0f102a"/><rect x="748.75" y="299.5" width="49.92" height="49.92" fill="#3941a5"/><polygon points="748.75,299.5 798.67,299.5 798.67,349.42" fill="#3e45b1"/><rect x="698.83" y="349.42" width="49.92" height="49.92" fill="#090a1b"/><polygon points="748.75,349.42 748.75,399.34000000000003 698.83,399.34000000000003" fill="#05060e"/><rect x="748.75" y="349.42" width="49.92" height="49.92" fill="#222763"/><polygon points="748.75,349.42 798.67,399.34000000000003 748.75,399.34000000000003" fill="#3c44ad"/><rect x="798.67" y="299.5" width="99.83" height="99.83" fill="#232865"/><path d="M 798.67 399.33 A 99.83 99.83 0 0 1  898.5 299.5 L 798.67 399.33 A 99.83 99.83 0 0 0 898.5 299.5" fill="#131637"/><rect x="898.5" y="299.5" width="99.83" height="99.83" fill="#0b0c1f"/><path d="M 898.5 299.5 A 99.83 99.83 0 0 1 998.33 399.33 L 898.5 399.33" fill="#0c0e23"/><rect x="998.33" y="299.5" width="99.83" height="99.83" fill="#434cc3"/><rect x="998.33" y="299.5" width="99.83" height="99.83" fill="#0f112a"/><rect x="1098.17" y="299.5" width="99.83" height="99.83" fill="#15183d"/><polygon points="1198,299.5 1198,399.33 1098.17,399.33" fill="#4851d0"/><rect x="0" y="399.33" width="99.83" height="99.83" fill="#1c1f50"/><path d="M 0 499.15999999999997 A 99.83 99.83 0 0 0 99.83 399.33 L 0 399.33" fill="#222763"/><rect x="99.83" y="399.33" width="99.83" height="99.83" fill="#1d2154"/><rect x="99.83" y="399.33" width="99.83" height="99.83" fill="#20245d"/><rect x="199.66666666666666" y="399.3333333333333" width="99.83333333333333" height="99.83333333333333" fill="#000000"/><rect x="199.67" y="399.33" width="49.92" height="49.92" fill="#2e3485"/><path d="M 199.67 399.33 A 49.92 49.92 0 0 0 249.58999999999997 449.25 L 249.58999999999997 399.33" fill="#292e76"/><rect x="249.58" y="399.33" width="49.92" height="49.92" fill="#4851cf"/><path d="M 249.58 449.25 A 49.92 49.92 0 0 0 299.5 399.33 L 249.58 399.33" fill="#131638"/><rect x="199.67" y="449.25" width="49.92" height="49.92" fill="#262b6f"/><path d="M 199.67 499.17 A 49.92 49.92 0 0 1  249.58999999999997 449.25 L 249.58999999999997 499.17" fill="#282d73"/><rect x="249.58" y="449.25" width="49.92" height="49.92" fill="#3f47b5"/><path d="M 249.58 449.25 A 49.92 49.92 0 0 1 299.5 499.17 L 249.58 499.17" fill="#4049ba"/><rect x="299.5" y="399.33" width="99.83" height="99.83" fill="#3c43ac"/><polygon points="299.5,399.33 399.33,499.15999999999997 299.5,499.15999999999997" fill="#070815"/><rect x="399.3333333333333" y="399.3333333333333" width="99.83333333333333" height="99.83333333333333" fill="#000000"/><rect x="399.33" y="399.33" width="49.92" height="49.92" fill="#0d0e24"/><circle cx="424.28999999999996" cy="424.28999999999996" r="24.96" fill="#0d0e25"/><rect x="449.25" y="399.33" width="49.92" height="49.92" fill="#04050c"/><rect x="449.25" y="399.33" width="49.92" height="49.92" fill="#04050d"/><rect x="399.33" y="449.25" width="49.92" height="49.92" fill="#1b1f4f"/><circle cx="424.28999999999996" cy="474.21" r="24.96" fill="#2d3381"/><rect x="449.25" y="449.25" width="49.92" height="49.92" fill="#1f2359"/><rect x="449.25" y="449.25" width="49.92" height="49.92" fill="#070813"/><rect x="499.17" y="399.33" width="99.83" height="99.83" fill="#0b0d21"/><rect x="499.17" y="399.33" width="99.83" height="99.83" fill="#535ef0"/><rect x="599" y="399.33" width="99.83" height="99.83" fill="#090a1a"/><rect x="599" y="399.33" width="99.83" height="99.83" fill="#232865"/><rect x="698.8333333333333" y="399.3333333333333" width="99.83333333333333" height="99.83333333333333" fill="#000000"/><rect x="698.83" y="399.33" width="49.92" height="49.92" fill="#131535"/><path d="M 698.83 449.25 A 49.92 49.92 0 0 1  748.75 399.33 L 748.75 449.25" fill="#000000"/><rect x="748.75" y="399.33" width="49.92" height="49.92" fill="#16193f"/><path d="M 748.75 399.33 A 49.92 49.92 0 0 1 798.67 449.25 L 748.75 449.25" fill="#373e9f"/><rect x="698.83" y="449.25" width="49.92" height="49.92" fill="#222661"/><path d="M 698.83 449.25 A 49.92 49.92 0 0 0 748.75 499.17 L 748.75 449.25" fill="#363c9b"/><rect x="748.75" y="449.25" width="49.92" height="49.92" fill="#1c1f51"/><path d="M 748.75 499.17 A 49.92 49.92 0 0 0 798.67 449.25 L 748.75 449.25" fill="#3b42aa"/><rect x="798.67" y="399.33" width="99.83" height="99.83" fill="#323991"/><path d="M 798.67 499.15999999999997 A 99.83 99.83 0 0 1  898.5 399.33 L 898.5 499.15999999999997" fill="#454dc6"/><rect x="898.5" y="399.33" width="99.83" height="99.83" fill="#0d0f26"/><rect x="898.5" y="399.33" width="99.83" height="99.83" fill="#171a44"/><rect x="998.33" y="399.33" width="99.83" height="99.83" fill="#323890"/><path d="M 998.33 399.33 A 99.83 99.83 0 0 1 1098.16 499.15999999999997 L 998.33 499.15999999999997" fill="#242968"/><rect x="1098.1666666666665" y="399.3333333333333" width="99.83333333333333" height="99.83333333333333" fill="#000000"/><rect x="1098.17" y="399.33" width="49.92" height="49.92" fill="#31378e"/><path d="M 1098.17 449.25 A 49.92 49.92 0 0 1 1148.0900000000001 399.33 L 1148.0900000000001 411.81 A 37.44 37.44 0 0 0 1110.65 449.25" fill="#4952d1"/><rect x="1148.08" y="399.33" width="49.92" height="49.92" fill="#212661"/><path d="M 1148.08 399.33 A 49.92 49.92 0 0 1 1198 449.25 L 1185.52 449.25 A 37.44 37.44 0 0 0 1148.08 411.81" fill="#4c56db"/><rect x="1098.17" y="449.25" width="49.92" height="49.92" fill="#111331"/><path d="M 1098.17 449.25 A 49.92 49.92 0 0 0 1148.0900000000001 499.17 L 1148.0900000000001 486.69 A 37.44 37.44 0 0 1 1110.65 449.25" fill="#505ae7"/><rect x="1148.08" y="449.25" width="49.92" height="49.92" fill="#3a42a8"/><path d="M 1148.08 499.17 A 49.92 49.92 0 0 0 1198 449.25 L 1185.52 449.25 A 37.44 37.44 0 0 1 1148.08 486.69" fill="#1e2155"/><rect x="0" y="499.17" width="99.83" height="99.83" fill="#3d45b0"/><polygon points="0,499.17 99.83,499.17 0,599" fill="#0f112a"/><rect x="99.83333333333333" y="499.16666666666663" width="99.83333333333333" height="99.83333333333333" fill="#000000"/><rect x="99.83" y="499.17" width="49.92" height="49.92" fill="#262b6e"/><polygon points="99.83,499.17 149.75,499.17 99.83,549.09" fill="#3e46b3"/><rect x="149.75" y="499.17" width="49.92" height="49.92" fill="#020205"/><polygon points="149.75,499.17 199.67000000000002,499.17 199.67000000000002,549.09" fill="#1e2156"/><rect x="99.83" y="549.08" width="49.92" height="49.92" fill="#373e9e"/><polygon points="149.75,549.08 149.75,599 99.83,599" fill="#4952d1"/><rect x="149.75" y="549.08" width="49.92" height="49.92" fill="#444cc3"/><polygon points="149.75,549.08 199.67000000000002,599 149.75,599" fill="#373e9e"/><rect x="199.67" y="499.17" width="99.83" height="99.83" fill="#05060f"/><rect x="199.67" y="499.17" width="99.83" height="99.83" fill="#070815"/><rect x="299.5" y="499.17" width="99.83" height="99.83" fill="#272c70"/><path d="M 299.5 499.17 A 99.83 99.83 0 0 0 399.33 599 L 399.33 499.17" fill="#1c1f4f"/><rect x="399.3333333333333" y="499.16666666666663" width="99.83333333333333" height="99.83333333333333" fill="#000000"/><rect x="399.33" y="499.17" width="49.92" height="49.92" fill="#0f112b"/><path d="M 399.33 499.17 A 49.92 49.92 0 0 0 449.25 549.09 L 449.25 499.17" fill="#070813"/><rect x="449.25" y="499.17" width="49.92" height="49.92" fill="#3940a4"/><path d="M 449.25 549.09 A 49.92 49.92 0 0 0 499.17 499.17 L 449.25 499.17" fill="#2e3486"/><rect x="399.33" y="549.08" width="49.92" height="49.92" fill="#5560f6"/><path d="M 399.33 599 A 49.92 49.92 0 0 1  449.25 549.08 L 449.25 599" fill="#31388f"/><rect x="449.25" y="549.08" width="49.92" height="49.92" fill="#0a0b1d"/><path d="M 449.25 549.08 A 49.92 49.92 0 0 1 499.17 599 L 449.25 599" fill="#545ff3"/><rect x="499.16666666666663" y="499.16666666666663" width="99.83333333333333" height="99.83333333333333" fill="#000000"/><rect x="499.17" y="499.17" width="49.92" height="49.92" fill="#161940"/><polygon points="499.17,499.17 549.09,499.17 499.17,549.09" fill="#4851ce"/><rect x="549.08" y="499.17" width="49.92" height="49.92" fill="#323991"/><polygon points="549.08,499.17 599,499.17 599,549.09" fill="#30368a"/><rect x="499.17" y="549.08" width="49.92" height="49.92" fill="#464fc9"/><polygon points="549.09,549.08 549.09,599 499.17,599" fill="#020205"/><rect x="549.08" y="549.08" width="49.92" height="49.92" fill="#353c9a"/><polygon points="549.08,549.08 599,599 549.08,599" fill="#383fa1"/><rect x="599" y="499.17" width="99.83" height="99.83" fill="#04050c"/><rect x="599" y="499.17" width="99.83" height="99.83" fill="#020206"/><rect x="698.8333333333333" y="499.16666666666663" width="99.83333333333333" height="99.83333333333333" fill="#000000"/><rect x="698.83" y="499.17" width="49.92" height="49.92" fill="#171a43"/><path d="M 698.83 549.09 A 49.92 49.92 0 0 1 748.75 499.17 L 748.75 511.65000000000003 A 37.44 37.44 0 0 0 711.3100000000001 549.09" fill="#343b97"/><rect x="748.75" y="499.17" width="49.92" height="49.92" fill="#323890"/><path d="M 748.75 499.17 A 49.92 49.92 0 0 1 798.67 549.09 L 786.19 549.09 A 37.44 37.44 0 0 0 748.75 511.65000000000003" fill="#2d3382"/><rect x="698.83" y="549.08" width="49.92" height="49.92" fill="#505be8"/><path d="M 698.83 549.08 A 49.92 49.92 0 0 0 748.75 599 L 748.75 586.52 A 37.44 37.44 0 0 1 711.3100000000001 549.08" fill="#191c47"/><rect x="748.75" y="549.08" width="49.92" height="49.92" fill="#3f47b6"/><path d="M 748.75 599 A 49.92 49.92 0 0 0 798.67 549.08 L 786.19 549.08 A 37.44 37.44 0 0 1 748.75 586.52" fill="#1b1f4f"/><rect x="798.67" y="499.17" width="99.83" height="99.83" fill="#0c0e23"/><path d="M 798.67 499.17 A 99.83 99.83 0 0 1  898.5 599 L 798.67 499.17 A 99.83 99.83 0 0 0 898.5 599" fill="#3940a5"/><rect x="898.5" y="499.16666666666663" width="99.83333333333333" height="99.83333333333333" fill="#000000"/><rect x="898.5" y="499.17" width="49.92" height="49.92" fill="#4a53d4"/><polygon points="898.5,499.17 948.42,499.17 898.5,549.09" fill="#323890"/><rect x="948.42" y="499.17" width="49.92" height="49.92" fill="#343a95"/><polygon points="948.42,499.17 998.3399999999999,499.17 998.3399999999999,549.09" fill="#30368b"/><rect x="898.5" y="549.08" width="49.92" height="49.92" fill="#282e74"/><polygon points="948.42,549.08 948.42,599 898.5,599" fill="#2f3589"/><rect x="948.42" y="549.08" width="49.92" height="49.92" fill="#070813"/><polygon points="948.42,549.08 998.3399999999999,599 948.42,599" fill="#070815"/><rect x="998.33" y="499.17" width="99.83" height="99.83" fill="#3c43ac"/><path d="M 998.33 499.17 A 99.83 99.83 0 0 0 1098.16 599 L 1098.16 499.17" fill="#31378d"/><rect x="1098.1666666666665" y="499.16666666666663" width="99.83333333333333" height="99.83333333333333" fill="#000000"/><rect x="1098.17" y="499.17" width="49.92" height="49.92" fill="#4a53d4"/><path d="M 1098.17 499.17 A 49.92 49.92 0 0 0 1148.0900000000001 549.09 L 1148.0900000000001 499.17" fill="#373e9f"/><rect x="1148.08" y="499.17" width="49.92" height="49.92" fill="#10122f"/><path d="M 1148.08 549.09 A 49.92 49.92 0 0 0 1198 499.17 L 1148.08 499.17" fill="#242867"/><rect x="1098.17" y="549.08" width="49.92" height="49.92" fill="#04040b"/><path d="M 1098.17 599 A 49.92 49.92 0 0 1  1148.0900000000001 549.08 L 1148.0900000000001 599" fill="#1d2053"/><rect x="1148.08" y="549.08" width="49.92" height="49.92" fill="#0a0c1e"/><path d="M 1148.08 549.08 A 49.92 49.92 0 0 1 1198 599 L 1148.08 599" fill="#252a6a"/></g></svg>