<?xml version="1.0" standalone="no"?><svg xmlns:xlink="http://www.w3.org/1999/xlink" xmlns="http://www.w3.org/2000/svg" viewBox="0 0 1000 888.8888888888889" preserveAspectRatio="xMaxYMax slice"><g transform="scale(1.4336917562724014)"><rect x="0" y="0" width="697.5" height="620" fill="transparent"/><circle cx="38.75" cy="38.75" r="7.75" fill="#e1e3fe"/><circle cx="116.25" cy="38.75" r="7.75" fill="#95f4be"/><circle cx="193.75" cy="38.75" r="7.75" fill="#fbfbb0"/><circle cx="271.25" cy="38.75" r="7.75" fill="#f19be3"/><circle cx="348.75" cy="38.75" r="7.75" fill="#f9fefc"/><circle cx="426.25" cy="38.75" r="7.75" fill="#daddfd"/><circle cx="503.75" cy="38.75" r="7.75" fill="#cfd2fd"/><circle cx="581.25" cy="38.75" r="7.75" fill="#b2f7d0"/><circle cx="658.75" cy="38.75" r="7.75" fill="#fefee3"/><circle cx="38.75" cy="116.25" r="7.75" fill="#a4aafb"/><circle cx="116.25" cy="116.25" r="7.75" fill="#ed7cdb"/><circle cx="193.75" cy="116.25" r="7.75" fill="#bef9d7"/><circle cx="271.25" cy="116.25" r="7.75" fill="#ef8cdf"/><circle cx="348.75" cy="116.25" r="7.75" fill="#6f78f9"/><circle cx="426.25" cy="116.25" r="7.75" fill="#f1f2fe"/><circle cx="503.75" cy="116.25" r="7.75" fill="#fffff8"/><circle cx="581.25" cy="116.25" r="7.75" fill="#c6f9dc"/><circle cx="658.75" cy="116.25" r="7.75" fill="#c0f9d8"/><circle cx="38.75" cy="193.75" r="7.75" fill="#7a83f9"/><circle cx="116.25" cy="193.75" r="7.75" fill="#ef89de"/><circle cx="193.75" cy="193.75" r="7.75" fill="#a9f6ca"/><circle cx="271.25" cy="193.75" r="7.75" fill="#adb2fc"/><circle cx="348.75" cy="193.75" r="7.75" fill="#fdfdd9"/><circle cx="426.25" cy="193.75" r="7.75" fill="#fce6f8"/><circle cx="503.75" cy="193.75" r="7.75" fill="#f9f98d"/><circle cx="581.25" cy="193.75" r="7.75" fill="#fdfdd9"/><circle cx="658.75" cy="193.75" r="7.75" fill="#a8f6ca"/><circle cx="38.75" cy="271.25" r="7.75" fill="#e2fced"/><circle cx="116.25" cy="271.25" r="7.75" fill="#fdfddd"/><circle cx="193.75" cy="271.25" r="7.75" fill="#fffffa"/><circle cx="271.25" cy="271.25" r="7.75" fill="#ccfae0"/><circle cx="348.75" cy="271.25" r="7.75" fill="#99a0fb"/><circle cx="426.25" cy="271.25" r="7.75" fill="#ef89de"/><circle cx="503.75" cy="271.25" r="7.75" fill="#fbe1f7"/><circle cx="581.25" cy="271.25" r="7.75" fill="#fbfbb1"/><circle cx="658.75" cy="271.25" r="7.75" fill="#fafa97"/><circle cx="38.75" cy="348.75" r="7.75" fill="#adf7cd"/><circle cx="116.25" cy="348.75" r="7.75" fill="#9ba2fb"/><circle cx="193.75" cy="348.75" r="7.75" fill="#ec72d8"/><circle cx="271.25" cy="348.75" r="7.75" fill="#e7fdf0"/><circle cx="348.75" cy="348.75" r="7.75" fill="#fdfdd5"/><circle cx="426.25" cy="348.75" r="7.75" fill="#f29ce3"/><circle cx="503.75" cy="348.75" r="7.75" fill="#fafa95"/><circle cx="581.25" cy="348.75" r="7.75" fill="#f3fef8"/><circle cx="658.75" cy="348.75" r="7.75" fill="#f5b2ea"/><circle cx="38.75" cy="426.25" r="7.75" fill="#93f4bd"/><circle cx="116.25" cy="426.25" r="7.75" fill="#fefafe"/><circle cx="193.75" cy="426.25" r="7.75" fill="#fdfdd0"/><circle cx="271.25" cy="426.25" r="7.75" fill="#fafa97"/><circle cx="348.75" cy="426.25" r="7.75" fill="#d5d8fd"/><circle cx="426.25" cy="426.25" r="7.75" fill="#94f4bd"/><circle cx="503.75" cy="426.25" r="7.75" fill="#cbfadf"/><circle cx="581.25" cy="426.25" r="7.75" fill="#ebedfe"/><circle cx="658.75" cy="426.25" r="7.75" fill="#fef6fc"/><circle cx="38.75" cy="503.75" r="7.75" fill="#a2f6c6"/><circle cx="116.25" cy="503.75" r="7.75" fill="#c2c6fc"/><circle cx="193.75" cy="503.75" r="7.75" fill="#c4c8fd"/><circle cx="271.25" cy="503.75" r="7.75" fill="#ea64d4"/><circle cx="348.75" cy="503.75" r="7.75" fill="#ced1fd"/><circle cx="426.25" cy="503.75" r="7.75" fill="#f08fe0"/><circle cx="503.75" cy="503.75" r="7.75" fill="#cfd2fd"/><circle cx="581.25" cy="503.75" r="7.75" fill="#95f4be"/><circle cx="658.75" cy="503.75" r="7.75" fill="#b1f7cf"/><circle cx="38.75" cy="581.25" r="7.75" fill="#5963f8"/><circle cx="116.25" cy="581.25" r="7.75" fill="#ee81dc"/><circle cx="193.75" cy="581.25" r="7.75" fill="#fcebfa"/><circle cx="271.25" cy="581.25" r="7.75" fill="#7982f9"/><circle cx="348.75" cy="581.25" r="7.75" fill="#fffffe"/><circle cx="426.25" cy="581.25" r="7.75" fill="#e6fdf0"/><circle cx="503.75" cy="581.25" r="7.75" fill="#fefef3"/><circle cx="581.25" cy="581.25" r="7.75" fill="#b5f8d2"/><circle cx="658.75" cy="581.25" r="7.75" fill="#ea65d4"/></g></svg>